<svg width="164" height="30" viewBox="0 0 164 30" fill="none" xmlns="http://www.w3.org/2000/svg">
<path d="M15.625 28.125V15.625L26.25 9.375V21.25L15.625 28.125Z" fill="#5FACFE"/>
<path d="M26.25 20V10C26.2496 9.56159 26.1338 9.13101 25.9144 8.75145C25.695 8.37189 25.3797 8.0567 25 7.8375L16.25 2.8375C15.87 2.61808 15.4388 2.50256 15 2.50256C14.5612 2.50256 14.13 2.61808 13.75 2.8375L5 7.8375C4.62033 8.0567 4.30498 8.37189 4.08558 8.75145C3.86618 9.13101 3.75045 9.56159 3.75 10V20C3.75045 20.4384 3.86618 20.869 4.08558 21.2485C4.30498 21.6281 4.62033 21.9433 5 22.1625L13.75 27.1625C14.13 27.3819 14.5612 27.4974 15 27.4974C15.4388 27.4974 15.87 27.3819 16.25 27.1625L25 22.1625C25.3797 21.9433 25.695 21.6281 25.9144 21.2485C26.1338 20.869 26.2496 20.4384 26.25 20Z" stroke="#FDFDFD" stroke-width="2" stroke-linecap="round" stroke-linejoin="round"/>
<path d="M4.0874 8.69995L14.9999 15.0125L25.9124 8.69995" stroke="#FDFDFD" stroke-width="2" stroke-linecap="round" stroke-linejoin="round"/>
<path d="M15 27.6V15" stroke="#FDFDFD" stroke-width="2" stroke-linecap="round" stroke-linejoin="round"/>
<path d="M44.708 13.002H52.364V15.356H44.708V13.002ZM44.928 19.602H53.618V22H42.068V6.6H53.31V8.998H44.928V19.602ZM55.5186 17.028V14.74H61.5686V17.028H55.5186ZM64.8414 22V6.6H67.7014V19.58H75.7534V22H64.8414ZM83.1619 22.154C81.8566 22.154 80.7126 21.8973 79.7299 21.384C78.7619 20.856 78.0066 20.1373 77.4639 19.228C76.9359 18.3187 76.6719 17.2847 76.6719 16.126C76.6719 14.9527 76.9286 13.9187 77.4419 13.024C77.9699 12.1147 78.6886 11.4033 79.5979 10.89C80.5219 10.3767 81.5706 10.12 82.7439 10.12C83.8879 10.12 84.9073 10.3693 85.8019 10.868C86.6966 11.3667 87.4006 12.0707 87.9139 12.98C88.4273 13.8893 88.6839 14.96 88.6839 16.192C88.6839 16.3093 88.6766 16.4413 88.6619 16.588C88.6619 16.7347 88.6546 16.874 88.6399 17.006H78.8499V15.18H87.1879L86.1099 15.752C86.1246 15.0773 85.9853 14.4833 85.6919 13.97C85.3986 13.4567 84.9953 13.0533 84.4819 12.76C83.9833 12.4667 83.4039 12.32 82.7439 12.32C82.0693 12.32 81.4753 12.4667 80.9619 12.76C80.4633 13.0533 80.0673 13.464 79.7739 13.992C79.4953 14.5053 79.3559 15.114 79.3559 15.818V16.258C79.3559 16.962 79.5173 17.5853 79.8399 18.128C80.1626 18.6707 80.6173 19.0887 81.2039 19.382C81.7906 19.6753 82.4653 19.822 83.2279 19.822C83.8879 19.822 84.4819 19.7193 85.0099 19.514C85.5379 19.3087 86.0073 18.986 86.4179 18.546L87.8919 20.24C87.3639 20.856 86.6966 21.3327 85.8899 21.67C85.0979 21.9927 84.1886 22.154 83.1619 22.154ZM98.2412 22V19.624L98.0872 19.118V14.96C98.0872 14.1533 97.8452 13.53 97.3612 13.09C96.8772 12.6353 96.1439 12.408 95.1612 12.408C94.5012 12.408 93.8486 12.5107 93.2032 12.716C92.5726 12.9213 92.0372 13.2073 91.5972 13.574L90.5192 11.572C91.1499 11.088 91.8979 10.7287 92.7632 10.494C93.6432 10.2447 94.5526 10.12 95.4912 10.12C97.1926 10.12 98.5052 10.5307 99.4292 11.352C100.368 12.1587 100.837 13.4127 100.837 15.114V22H98.2412ZM94.5452 22.154C93.6652 22.154 92.8952 22.0073 92.2352 21.714C91.5752 21.406 91.0619 20.988 90.6952 20.46C90.3432 19.9173 90.1672 19.3087 90.1672 18.634C90.1672 17.974 90.3212 17.38 90.6292 16.852C90.9519 16.324 91.4726 15.906 92.1912 15.598C92.9099 15.29 93.8632 15.136 95.0512 15.136H98.4612V16.962H95.2492C94.3106 16.962 93.6799 17.116 93.3572 17.424C93.0346 17.7173 92.8732 18.084 92.8732 18.524C92.8732 19.0227 93.0712 19.4187 93.4672 19.712C93.8632 20.0053 94.4132 20.152 95.1172 20.152C95.7919 20.152 96.3932 19.998 96.9212 19.69C97.4639 19.382 97.8526 18.9273 98.0872 18.326L98.5492 19.976C98.2852 20.6653 97.8086 21.2007 97.1192 21.582C96.4446 21.9633 95.5866 22.154 94.5452 22.154ZM104.367 22V10.252H106.985V13.486L106.677 12.54C107.029 11.748 107.579 11.1467 108.327 10.736C109.089 10.3253 110.035 10.12 111.165 10.12V12.738C111.047 12.7087 110.937 12.694 110.835 12.694C110.732 12.6793 110.629 12.672 110.527 12.672C109.485 12.672 108.657 12.98 108.041 13.596C107.425 14.1973 107.117 15.0993 107.117 16.302V22H104.367ZM120.163 10.12C121.102 10.12 121.938 10.3033 122.671 10.67C123.419 11.0367 124.006 11.6013 124.431 12.364C124.857 13.112 125.069 14.08 125.069 15.268V22H122.319V15.62C122.319 14.5787 122.07 13.8013 121.571 13.288C121.087 12.7747 120.405 12.518 119.525 12.518C118.88 12.518 118.308 12.65 117.809 12.914C117.311 13.178 116.922 13.574 116.643 14.102C116.379 14.6153 116.247 15.268 116.247 16.06V22H113.497V10.252H116.115V13.42L115.653 12.452C116.064 11.704 116.658 11.132 117.435 10.736C118.227 10.3253 119.137 10.12 120.163 10.12ZM128.558 22V10.252H131.308V22H128.558ZM129.944 8.316C129.431 8.316 129.005 8.15467 128.668 7.832C128.345 7.50933 128.184 7.12067 128.184 6.666C128.184 6.19667 128.345 5.808 128.668 5.5C129.005 5.17733 129.431 5.016 129.944 5.016C130.457 5.016 130.875 5.17 131.198 5.478C131.535 5.77133 131.704 6.14533 131.704 6.6C131.704 7.084 131.543 7.49467 131.22 7.832C130.897 8.15467 130.472 8.316 129.944 8.316ZM141.583 10.12C142.522 10.12 143.358 10.3033 144.091 10.67C144.839 11.0367 145.426 11.6013 145.851 12.364C146.277 13.112 146.489 14.08 146.489 15.268V22H143.739V15.62C143.739 14.5787 143.49 13.8013 142.991 13.288C142.507 12.7747 141.825 12.518 140.945 12.518C140.3 12.518 139.728 12.65 139.229 12.914C138.731 13.178 138.342 13.574 138.063 14.102C137.799 14.6153 137.667 15.268 137.667 16.06V22H134.917V10.252H137.535V13.42L137.073 12.452C137.484 11.704 138.078 11.132 138.855 10.736C139.647 10.3253 140.557 10.12 141.583 10.12ZM155.323 26.422C154.238 26.422 153.175 26.2753 152.133 25.982C151.107 25.7033 150.263 25.2927 149.603 24.75L150.835 22.682C151.349 23.1073 151.994 23.4447 152.771 23.694C153.563 23.958 154.363 24.09 155.169 24.09C156.46 24.09 157.406 23.7893 158.007 23.188C158.609 22.6013 158.909 21.714 158.909 20.526V18.436L159.129 15.774L159.041 13.112V10.252H161.659V20.218C161.659 22.3447 161.117 23.9067 160.031 24.904C158.946 25.916 157.377 26.422 155.323 26.422ZM154.971 21.472C153.857 21.472 152.845 21.2373 151.935 20.768C151.041 20.284 150.329 19.6167 149.801 18.766C149.288 17.9153 149.031 16.918 149.031 15.774C149.031 14.6447 149.288 13.6547 149.801 12.804C150.329 11.9533 151.041 11.2933 151.935 10.824C152.845 10.3547 153.857 10.12 154.971 10.12C155.969 10.12 156.863 10.318 157.655 10.714C158.447 11.11 159.078 11.726 159.547 12.562C160.031 13.398 160.273 14.4687 160.273 15.774C160.273 17.0793 160.031 18.1573 159.547 19.008C159.078 19.844 158.447 20.4673 157.655 20.878C156.863 21.274 155.969 21.472 154.971 21.472ZM155.389 19.14C156.079 19.14 156.695 19.0007 157.237 18.722C157.78 18.4287 158.198 18.0327 158.491 17.534C158.799 17.0207 158.953 16.434 158.953 15.774C158.953 15.114 158.799 14.5347 158.491 14.036C158.198 13.5227 157.78 13.134 157.237 12.87C156.695 12.5913 156.079 12.452 155.389 12.452C154.7 12.452 154.077 12.5913 153.519 12.87C152.977 13.134 152.551 13.5227 152.243 14.036C151.95 14.5347 151.803 15.114 151.803 15.774C151.803 16.434 151.95 17.0207 152.243 17.534C152.551 18.0327 152.977 18.4287 153.519 18.722C154.077 19.0007 154.7 19.14 155.389 19.14Z" fill="#FDFDFD"/>
</svg>
